<?xml version="1.0" encoding="utf-8"?>
<svg viewBox="19 19 106 106" style="enable-background:new 0 0 144 144;" xmlns="http://www.w3.org/2000/svg">
  <path id="path3" d="M 123.62,70.716 119.22,67.996 C 119.19,67.568 119.14,67.141 119.1,66.716 L 122.87,63.194 C 123.26,62.836 123.43,62.306 123.33,61.793 123.22,61.278 122.86,60.854 122.37,60.671 L 117.55,58.866 C 117.42,58.448 117.3,58.033 117.17,57.62 L 120.18,53.438 C 120.49,53.013 120.55,52.46 120.35,51.975 120.15,51.492 119.71,51.146 119.19,51.061 L 114.1,50.233 C 113.91,49.847 113.7,49.467 113.49,49.09 L 115.63,44.395 C 115.85,43.917 115.81,43.361 115.51,42.927 115.22,42.491 114.73,42.236 114.2,42.256 L 109.04,42.436 C 108.77,42.102 108.5,41.771 108.22,41.446 L 109.41,36.414 C 109.53,35.903 109.38,35.368 109.01,34.997 108.64,34.627 108.1,34.474 107.59,34.594 L 102.56,35.78 C 102.23,35.504 101.9,35.231 101.57,34.964 L 101.75,29.798 C 101.77,29.275 101.51,28.778 101.08,28.488 100.64,28.196 100.09,28.152 99.61,28.369 L 94.916,30.509 C 94.537,30.301 94.157,30.095 93.773,29.896 L 92.943,24.805 C 92.859,24.289 92.513,23.851 92.029,23.651 91.546,23.45 90.992,23.515 90.567,23.821 L 86.382,26.832 C 85.97,26.701 85.556,26.575 85.138,26.455 L 83.333,21.627 C 83.15,21.135 82.726,20.774 82.211,20.672 81.697,20.571 81.168,20.742 80.811,21.124 L 77.289,24.903 C 76.864,24.856 76.436,24.813 76.009,24.778 L 73.289,20.383 C 73.014,19.938 72.527,19.667 72.003,19.667 71.479,19.667 70.992,19.938 70.718,20.383 L 67.998,24.778 C 67.57,24.813 67.142,24.856 66.717,24.903 L 63.194,21.124 C 62.837,20.742 62.307,20.571 61.794,20.672 61.279,20.775 60.855,21.135 60.672,21.627 L 58.867,26.455 C 58.449,26.575 58.035,26.702 57.622,26.832 L 53.438,23.821 C 53.013,23.514 52.459,23.449 51.975,23.651 51.492,23.851 51.145,24.289 51.061,24.805 L 50.231,29.896 C 49.847,30.095 49.467,30.3 49.088,30.509 L 44.394,28.369 C 43.917,28.151 43.361,28.196 42.927,28.488 42.491,28.778 42.236,29.275 42.256,29.798 L 42.436,34.964 C 42.102,35.231 41.771,35.504 41.444,35.78 L 36.413,34.594 C 35.902,34.475 35.366,34.627 34.996,34.997 34.624,35.368 34.473,35.903 34.593,36.414 L 35.778,41.446 C 35.503,41.772 35.231,42.102 34.964,42.436 L 29.798,42.256 C 29.277,42.241 28.779,42.491 28.488,42.927 28.196,43.361 28.152,43.917 28.369,44.395 L 30.509,49.09 C 30.301,49.467 30.095,49.847 29.896,50.233 L 24.806,51.061 C 24.289,51.145 23.853,51.491 23.652,51.975 23.452,52.46 23.517,53.013 23.822,53.438 L 26.833,57.62 C 26.702,58.033 26.575,58.448 26.455,58.866 L 21.627,60.671 C 21.137,60.854 20.776,61.278 20.674,61.793 20.572,62.307 20.743,62.836 21.126,63.194 L 24.903,66.716 C 24.856,67.141 24.814,67.569 24.778,67.996 L 20.384,70.716 C 19.939,70.991 19.668,71.477 19.668,72.002 19.668,72.527 19.939,73.013 20.384,73.287 L 24.778,76.007 C 24.814,76.435 24.856,76.862 24.903,77.287 L 21.126,80.81 C 20.743,81.167 20.572,81.697 20.674,82.21 20.776,82.725 21.137,83.148 21.627,83.332 L 26.455,85.137 C 26.575,85.555 26.702,85.97 26.833,86.383 L 23.822,90.566 C 23.516,90.992 23.451,91.545 23.652,92.028 23.853,92.513 24.29,92.859 24.807,92.942 L 29.896,93.77 C 30.095,94.156 30.299,94.536 30.509,94.915 L 28.369,99.608 C 28.151,100.08 28.196,100.64 28.488,101.08 28.78,101.51 29.277,101.77 29.798,101.75 L 34.962,101.57 C 35.231,101.9 35.502,102.23 35.778,102.56 L 34.593,107.59 C 34.473,108.1 34.624,108.63 34.996,109 35.365,109.38 35.902,109.53 36.413,109.41 L 41.444,108.22 C 41.771,108.5 42.102,108.77 42.436,109.04 L 42.256,114.2 C 42.236,114.73 42.491,115.22 42.927,115.51 43.361,115.8 43.917,115.85 44.394,115.63 L 49.088,113.49 C 49.466,113.7 49.846,113.91 50.231,114.1 L 51.061,119.19 C 51.145,119.71 51.491,120.15 51.975,120.35 52.458,120.55 53.013,120.48 53.438,120.18 L 57.62,117.17 C 58.033,117.3 58.448,117.42 58.866,117.54 L 60.671,122.37 C 60.854,122.86 61.278,123.22 61.793,123.32 62.307,123.43 62.836,123.26 63.193,122.87 L 66.716,119.09 C 67.141,119.14 67.569,119.18 67.997,119.22 L 70.717,123.62 C 70.991,124.06 71.478,124.33 72.002,124.33 72.526,124.33 73.013,124.06 73.288,123.62 L 76.008,119.22 C 76.436,119.18 76.863,119.14 77.288,119.09 L 80.81,122.87 C 81.167,123.26 81.697,123.43 82.21,123.32 82.725,123.22 83.149,122.86 83.332,122.37 L 85.137,117.54 C 85.555,117.42 85.97,117.3 86.383,117.17 L 90.566,120.18 C 90.991,120.48 91.545,120.55 92.028,120.35 92.512,120.15 92.858,119.71 92.942,119.19 L 93.772,114.1 C 94.156,113.91 94.536,113.7 94.915,113.49 L 99.609,115.63 C 100.09,115.85 100.64,115.8 101.08,115.51 101.51,115.22 101.77,114.73 101.75,114.2 L 101.57,109.04 C 101.9,108.77 102.23,108.5 102.56,108.22 L 107.59,109.41 C 108.1,109.53 108.64,109.38 109,109 109.38,108.63 109.53,108.1 109.41,107.59 L 108.22,102.56 C 108.5,102.23 108.77,101.9 109.04,101.57 L 114.2,101.75 C 114.72,101.77 115.22,101.51 115.51,101.08 115.8,100.64 115.85,100.08 115.63,99.608 L 113.49,94.915 C 113.7,94.536 113.91,94.156 114.1,93.77 L 119.19,92.942 C 119.71,92.859 120.15,92.513 120.35,92.028 120.55,91.545 120.48,90.992 120.18,90.566 L 117.17,86.383 C 117.3,85.97 117.42,85.555 117.54,85.137 L 122.37,83.332 C 122.86,83.148 123.22,82.725 123.32,82.21 123.43,81.696 123.26,81.167 122.87,80.81 L 119.1,77.287 C 119.14,76.862 119.18,76.434 119.22,76.007 L 123.62,73.287 C 124.06,73.013 124.33,72.526 124.33,72.002 124.33,71.478 124.06,70.991 123.62,70.716 Z M 94.208,107.17 C 92.53,106.81 91.463,105.15 91.823,103.47 92.182,101.79 93.835,100.72 95.512,101.08 97.19,101.44 98.259,103.1 97.899,104.78 97.539,106.46 95.885,107.53 94.208,107.17 Z M 64.903,34.055 69.689,39.076 C 70.771,40.209 72.563,40.251 73.695,39.168 L 79.05,34.046 C 90.271,36.135 99.771,43.12 105.25,52.703 L 101.58,60.983 C 100.95,62.416 101.59,64.092 103.02,64.727 L 110.08,67.862 C 111.49,80.621 105.88,91.917 99.29,98.482 L 92.715,97.069 C 91.184,96.741 89.678,97.715 89.35,99.249 L 87.79,106.53 C 82.976,108.71 77.63,109.93 72,109.93 66.241,109.93 60.779,108.65 55.879,106.38 L 54.32,99.096 C 53.992,97.564 52.486,96.588 50.956,96.917 L 44.529,98.297 C 37.763,91.181 32.753,81.02 33.954,67.553 L 40.649,64.578 C 42.079,63.943 42.725,62.267 42.09,60.834 L 38.61,52.96 C 44.643,42.306 54.679,36.008 64.903,34.055 Z M 49.463,107.01 C 47.785,107.38 46.133,106.31 45.772,104.63 45.413,102.94 46.48,101.29 48.158,100.93 49.836,100.57 51.489,101.64 51.849,103.32 52.208,105 51.14,106.65 49.463,107.01 Z M 37.6,58.91 C 38.296,60.481 37.588,62.322 36.019,63.017 34.45,63.714 32.614,63.005 31.918,61.433 31.222,59.861 31.93,58.023 33.499,57.326 35.069,56.63 36.904,57.338 37.6,58.91 Z M 69.691,29.784 C 70.931,28.596 72.898,28.643 74.085,29.885 75.27,31.13 75.225,33.099 73.982,34.286 72.742,35.474 70.775,35.428 69.588,34.184 68.404,32.941 68.449,30.972 69.691,29.784 Z M 106.07,59.061 C 106.77,57.49 108.6,56.781 110.17,57.478 111.74,58.174 112.45,60.014 111.75,61.585 111.06,63.157 109.22,63.866 107.65,63.169 106.08,62.473 105.38,60.634 106.07,59.061 Z"/>
  <g transform="matrix(0.207679, 0, 0, 0.207679, 42.035225, 9.555283)" style="">
    <g>
      <path d="M200.1094 288.2812 L225.2812 261.2812 Q250.3125 234.5625 250.3125 234.7031 Q244.8281 230.0625 244.8281 222.8906 Q244.8281 216.5625 249.1875 212.2031 Q253.5469 207.8438 259.7344 207.8438 Q266.0625 207.8438 270.4219 212.2031 Q274.7812 216.5625 274.7812 222.8906 Q274.7812 229.0781 270.4219 233.4375 Q266.0625 237.7969 259.7344 237.7969 L258.0469 237.7969 L221.2031 325.6875 L221.2031 393.0469 Q221.2031 404.2969 196.3125 411.9531 Q171.4219 419.625 143.4375 419.625 Q115.3125 419.625 90.4844 411.9531 Q65.6719 404.2969 65.6719 393.0469 L65.6719 325.6875 L28.8281 237.7969 L27.1406 237.7969 Q20.8125 237.7969 16.4531 233.4375 Q12.0938 229.0781 12.0938 222.8906 Q12.0938 216.5625 16.4531 212.2031 Q20.8125 207.8438 27.1406 207.8438 Q33.3281 207.8438 37.6875 212.2031 Q42.0469 216.5625 42.0469 222.8906 Q42.0469 230.2031 36.5625 234.4219 L86.625 288.2812 L82.4062 215.1562 Q76.3594 215.1562 72 210.7344 Q67.6406 206.2969 67.6406 200.1094 Q67.6406 193.7812 72 189.5 Q76.3594 185.2031 82.6875 185.2031 Q88.875 185.2031 93.2344 189.5625 Q97.5938 193.9219 97.5938 200.1094 Q97.5938 208.125 90.7031 212.7656 L123.3281 278.7188 L139.0781 205.3125 Q128.3906 201.9375 128.3906 190.9688 Q128.3906 184.6406 132.75 180.2812 Q137.1094 175.9219 143.4375 175.9219 Q149.625 175.9219 153.9844 180.2812 Q158.3438 184.6406 158.3438 190.9688 Q158.3438 201.9375 147.7969 205.3125 L163.5469 278.7188 L196.1719 212.7656 Q189.2812 208.5469 189.2812 200.1094 Q189.2812 193.9219 193.6406 189.5625 Q198 185.2031 204.1875 185.2031 Q210.375 185.2031 214.7969 189.5625 Q219.2344 193.9219 219.2344 200.1094 Q219.2344 206.2969 214.875 210.7344 Q210.5156 215.1562 204.4688 215.1562 L200.1094 288.2812 ZM143.4375 197.8594 Q146.25 197.8594 148.2812 195.75 Q150.3281 193.6406 150.3281 190.9688 Q150.3281 188.1562 148.2812 186.0469 Q146.25 183.9375 143.4375 183.9375 Q140.625 183.9375 138.5781 186.0469 Q136.5469 188.1562 136.5469 190.9688 Q136.5469 193.6406 138.5781 195.75 Q140.625 197.8594 143.4375 197.8594 ZM204.1875 207 Q207 207 209.0312 204.9688 Q211.0781 202.9219 211.0781 200.1094 Q211.0781 197.2969 209.0312 195.2656 Q207 193.2188 204.1875 193.2188 Q201.375 193.2188 199.3281 195.2656 Q197.2969 197.2969 197.2969 200.1094 Q197.2969 202.9219 199.3281 204.9688 Q201.375 207 204.1875 207 ZM82.6875 207 Q85.5 207 87.5312 204.9688 Q89.5781 202.9219 89.5781 200.1094 Q89.5781 197.2969 87.5312 195.2656 Q85.5 193.2188 82.6875 193.2188 Q79.875 193.2188 77.8281 195.2656 Q75.7969 197.2969 75.7969 200.1094 Q75.7969 202.9219 77.8281 204.9688 Q79.875 207 82.6875 207 ZM259.7344 229.7812 Q262.5469 229.7812 264.5781 227.75 Q266.625 225.7031 266.625 222.8906 Q266.625 220.0781 264.5781 218.0469 Q262.5469 216 259.7344 216 Q256.9219 216 254.875 218.0469 Q252.8438 220.0781 252.8438 222.8906 Q252.8438 225.7031 254.875 227.75 Q256.9219 229.7812 259.7344 229.7812 ZM27.1406 229.7812 Q29.8125 229.7812 31.9219 227.75 Q34.0312 225.7031 34.0312 222.8906 Q34.0312 220.0781 31.9219 218.0469 Q29.8125 216 27.1406 216 Q24.3281 216 22.2188 218.0469 Q20.1094 220.0781 20.1094 222.8906 Q20.1094 225.7031 22.2188 227.75 Q24.3281 229.7812 27.1406 229.7812 ZM213.1875 342.4219 L213.1875 330.6094 Q188.7188 313.5938 143.4375 313.5938 Q98.1562 313.5938 73.6875 330.6094 L73.6875 342.4219 Q80.8594 333 100.1875 327.3125 Q119.5312 321.6094 143.4375 321.6094 Q167.3438 321.6094 186.6719 327.3125 Q206.0156 333 213.1875 342.4219 ZM161.2969 340.0312 L143.4375 328.7812 L125.5781 340.0312 L143.4375 352.6875 L161.2969 340.0312 ZM213.1875 370.2656 L213.1875 346.6406 L202.2188 353.3906 L213.1875 370.2656 ZM84.6562 353.3906 L73.6875 346.6406 L73.6875 370.2656 L84.6562 353.3906 ZM213.1875 385.5938 L213.1875 376.5938 Q184.5 360.8438 143.4375 360.8438 Q102.375 360.8438 73.6875 376.5938 L73.6875 385.5938 Q86.0625 378 105.1094 373.4375 Q124.1719 368.8594 143.4375 368.8594 Q162.5625 368.8594 181.6094 373.4375 Q200.6719 378 213.1875 385.5938 Z" stroke="none"/>
    </g>
  </g>
</svg>